<?xml version="1.0" standalone="no"?><!DOCTYPE svg PUBLIC "-//W3C//DTD SVG 1.1//EN" "http://www.w3.org/Graphics/SVG/1.1/DTD/svg11.dtd"><svg t="1777793059864" class="icon" viewBox="0 0 1024 1024" version="1.1" xmlns="http://www.w3.org/2000/svg" p-id="4105" width="16" height="16" xmlns:xlink="http://www.w3.org/1999/xlink"><path d="M960 704a21.333333 21.333333 0 0 1 3.84 42.325333l-3.84 0.341334h-896a21.333333 21.333333 0 0 1-3.84-42.325334l3.84-0.341333h896z m0-213.333333a21.333333 21.333333 0 0 1 3.84 42.325333l-3.84 0.341333h-896a21.333333 21.333333 0 0 1-3.84-42.325333l3.84-0.341333h896z m0-213.333334a21.333333 21.333333 0 0 1 3.84 42.325334l-3.84 0.341333h-896a21.333333 21.333333 0 0 1-3.84-42.325333L64 277.333333h896z" fill="#888888" p-id="4106"></path></svg>