<?xml version="1.0" standalone="no"?><!DOCTYPE svg PUBLIC "-//W3C//DTD SVG 1.1//EN" "http://www.w3.org/Graphics/SVG/1.1/DTD/svg11.dtd"><svg t="1775566911076" class="icon" viewBox="0 0 1024 1024" version="1.1" xmlns="http://www.w3.org/2000/svg" p-id="1713" xmlns:xlink="http://www.w3.org/1999/xlink" width="24" height="24"><path d="M796.444444 284.444444h-96.711111l91.022223-187.733333-51.2-22.755555L637.155556 284.444444H386.844444L278.755556 73.955556l-45.511112 22.755555L324.266667 284.444444H227.555556c-62.577778 0-113.777778 51.2-113.777778 113.777778v455.111111c0 62.577778 51.2 113.777778 113.777778 113.777778h568.888888c62.577778 0 113.777778-51.2 113.777778-113.777778V398.222222c0-62.577778-51.2-113.777778-113.777778-113.777778z m56.888889 568.888889c0 34.133333-22.755556 56.888889-56.888889 56.888889H227.555556c-34.133333 0-56.888889-22.755556-56.888889-56.888889V398.222222c0-34.133333 22.755556-56.888889 56.888889-56.888889h568.888888c34.133333 0 56.888889 22.755556 56.888889 56.888889v455.111111zM0 455.111111h56.888889v341.333333H0zM967.111111 455.111111h56.888889v341.333333h-56.888889z" p-id="1714"></path><path d="M312.888889 597.333333m-85.333333 0a85.333333 85.333333 0 1 0 170.666666 0 85.333333 85.333333 0 1 0-170.666666 0Z" p-id="1715"></path><path d="M711.111111 597.333333m-85.333333 0a85.333333 85.333333 0 1 0 170.666666 0 85.333333 85.333333 0 1 0-170.666666 0Z" p-id="1716"></path></svg>